<?xml version="1.0" encoding="UTF-8" standalone="no"?><svg xmlns="http://www.w3.org/2000/svg" xmlns:xlink="http://www.w3.org/1999/xlink" contentScriptType="application/ecmascript" contentStyleType="text/css" height="499px" preserveAspectRatio="none" style="width:412px;height:499px;" version="1.1" viewBox="0 0 412 499" width="412px" zoomAndPan="magnify"><defs><filter height="300%" id="fmq1yv06hbfog" width="300%" x="-1" y="-1"><feGaussianBlur result="blurOut" stdDeviation="2.0"/><feColorMatrix in="blurOut" result="blurOut2" type="matrix" values="0 0 0 0 0 0 0 0 0 0 0 0 0 0 0 0 0 0 .4 0"/><feOffset dx="4.0" dy="4.0" in="blurOut2" result="blurOut3"/><feBlend in="SourceGraphic" in2="blurOut3" mode="normal"/></filter></defs><g><!--class SPIFlash--><rect fill="#FEFECE" filter="url(#fmq1yv06hbfog)" height="48" id="SPIFlash" style="stroke: #A80036; stroke-width: 1.5;" width="82" x="161.5" y="440"/><ellipse cx="176.5" cy="456" fill="#ADD1B2" rx="11" ry="11" style="stroke: #A80036; stroke-width: 1.0;"/><path d="M179.2656,451.875 Q179.4219,451.6563 179.6094,451.5469 Q179.7969,451.4375 180.0156,451.4375 Q180.3906,451.4375 180.625,451.6953 Q180.8594,451.9531 180.8594,452.5625 L180.8594,454.0156 Q180.8594,454.625 180.625,454.8906 Q180.3906,455.1563 180.0156,455.1563 Q179.6719,455.1563 179.4688,454.9531 Q179.2656,454.7656 179.1563,454.25 Q179.1094,453.8906 178.9219,453.7031 Q178.5938,453.3281 177.9844,453.1094 Q177.375,452.8906 176.75,452.8906 Q175.9844,452.8906 175.3516,453.2188 Q174.7188,453.5469 174.2266,454.2969 Q173.7344,455.0469 173.7344,456.0781 L173.7344,457.1719 Q173.7344,458.4063 174.625,459.2266 Q175.5156,460.0469 177.1094,460.0469 Q178.0469,460.0469 178.7031,459.7969 Q179.0938,459.6406 179.5156,459.2031 Q179.7813,458.9375 179.9297,458.8594 Q180.0781,458.7813 180.2813,458.7813 Q180.6094,458.7813 180.8672,459.0391 Q181.125,459.2969 181.125,459.6406 Q181.125,459.9844 180.7813,460.3906 Q180.2813,460.9688 179.4844,461.2969 Q178.4063,461.75 177.1094,461.75 Q175.5938,461.75 174.3906,461.125 Q173.4063,460.625 172.7188,459.5547 Q172.0313,458.4844 172.0313,457.2031 L172.0313,456.0469 Q172.0313,454.7188 172.6484,453.5703 Q173.2656,452.4219 174.3594,451.8047 Q175.4531,451.1875 176.6875,451.1875 Q177.4219,451.1875 178.0703,451.3516 Q178.7188,451.5156 179.2656,451.875 Z "/><text fill="#000000" font-family="sans-serif" font-size="12" lengthAdjust="spacingAndGlyphs" textLength="50" x="190.5" y="460.9102">SPIFlash</text><line style="stroke: #A80036; stroke-width: 1.5;" x1="162.5" x2="242.5" y1="472" y2="472"/><line style="stroke: #A80036; stroke-width: 1.5;" x1="162.5" x2="242.5" y1="480" y2="480"/><!--class RobustFlashIndexes--><rect fill="#FEFECE" filter="url(#fmq1yv06hbfog)" height="48" id="RobustFlashIndexes" style="stroke: #A80036; stroke-width: 1.5;" width="146" x="255.5" y="332"/><ellipse cx="270.5" cy="348" fill="#ADD1B2" rx="11" ry="11" style="stroke: #A80036; stroke-width: 1.0;"/><path d="M273.2656,343.875 Q273.4219,343.6563 273.6094,343.5469 Q273.7969,343.4375 274.0156,343.4375 Q274.3906,343.4375 274.625,343.6953 Q274.8594,343.9531 274.8594,344.5625 L274.8594,346.0156 Q274.8594,346.625 274.625,346.8906 Q274.3906,347.1563 274.0156,347.1563 Q273.6719,347.1563 273.4688,346.9531 Q273.2656,346.7656 273.1563,346.25 Q273.1094,345.8906 272.9219,345.7031 Q272.5938,345.3281 271.9844,345.1094 Q271.375,344.8906 270.75,344.8906 Q269.9844,344.8906 269.3516,345.2188 Q268.7188,345.5469 268.2266,346.2969 Q267.7344,347.0469 267.7344,348.0781 L267.7344,349.1719 Q267.7344,350.4063 268.625,351.2266 Q269.5156,352.0469 271.1094,352.0469 Q272.0469,352.0469 272.7031,351.7969 Q273.0938,351.6406 273.5156,351.2031 Q273.7813,350.9375 273.9297,350.8594 Q274.0781,350.7813 274.2813,350.7813 Q274.6094,350.7813 274.8672,351.0391 Q275.125,351.2969 275.125,351.6406 Q275.125,351.9844 274.7813,352.3906 Q274.2813,352.9688 273.4844,353.2969 Q272.4063,353.75 271.1094,353.75 Q269.5938,353.75 268.3906,353.125 Q267.4063,352.625 266.7188,351.5547 Q266.0313,350.4844 266.0313,349.2031 L266.0313,348.0469 Q266.0313,346.7188 266.6484,345.5703 Q267.2656,344.4219 268.3594,343.8047 Q269.4531,343.1875 270.6875,343.1875 Q271.4219,343.1875 272.0703,343.3516 Q272.7188,343.5156 273.2656,343.875 Z "/><text fill="#000000" font-family="sans-serif" font-size="12" lengthAdjust="spacingAndGlyphs" textLength="114" x="284.5" y="352.9102">RobustFlashIndexes</text><line style="stroke: #A80036; stroke-width: 1.5;" x1="256.5" x2="400.5" y1="364" y2="364"/><line style="stroke: #A80036; stroke-width: 1.5;" x1="256.5" x2="400.5" y1="372" y2="372"/><!--class BaroSamples--><rect fill="#FEFECE" filter="url(#fmq1yv06hbfog)" height="48" id="BaroSamples" style="stroke: #A80036; stroke-width: 1.5;" width="108" x="23.5" y="224"/><ellipse cx="38.5" cy="240" fill="#ADD1B2" rx="11" ry="11" style="stroke: #A80036; stroke-width: 1.0;"/><path d="M41.2656,235.875 Q41.4219,235.6563 41.6094,235.5469 Q41.7969,235.4375 42.0156,235.4375 Q42.3906,235.4375 42.625,235.6953 Q42.8594,235.9531 42.8594,236.5625 L42.8594,238.0156 Q42.8594,238.625 42.625,238.8906 Q42.3906,239.1563 42.0156,239.1563 Q41.6719,239.1563 41.4688,238.9531 Q41.2656,238.7656 41.1563,238.25 Q41.1094,237.8906 40.9219,237.7031 Q40.5938,237.3281 39.9844,237.1094 Q39.375,236.8906 38.75,236.8906 Q37.9844,236.8906 37.3516,237.2188 Q36.7188,237.5469 36.2266,238.2969 Q35.7344,239.0469 35.7344,240.0781 L35.7344,241.1719 Q35.7344,242.4063 36.625,243.2266 Q37.5156,244.0469 39.1094,244.0469 Q40.0469,244.0469 40.7031,243.7969 Q41.0938,243.6406 41.5156,243.2031 Q41.7813,242.9375 41.9297,242.8594 Q42.0781,242.7813 42.2813,242.7813 Q42.6094,242.7813 42.8672,243.0391 Q43.125,243.2969 43.125,243.6406 Q43.125,243.9844 42.7813,244.3906 Q42.2813,244.9688 41.4844,245.2969 Q40.4063,245.75 39.1094,245.75 Q37.5938,245.75 36.3906,245.125 Q35.4063,244.625 34.7188,243.5547 Q34.0313,242.4844 34.0313,241.2031 L34.0313,240.0469 Q34.0313,238.7188 34.6484,237.5703 Q35.2656,236.4219 36.3594,235.8047 Q37.4531,235.1875 38.6875,235.1875 Q39.4219,235.1875 40.0703,235.3516 Q40.7188,235.5156 41.2656,235.875 Z "/><text fill="#000000" font-family="sans-serif" font-size="12" lengthAdjust="spacingAndGlyphs" textLength="76" x="52.5" y="244.9102">BaroSamples</text><line style="stroke: #A80036; stroke-width: 1.5;" x1="24.5" x2="130.5" y1="256" y2="256"/><line style="stroke: #A80036; stroke-width: 1.5;" x1="24.5" x2="130.5" y1="264" y2="264"/><!--class RotatingSamples--><rect fill="#FEFECE" filter="url(#fmq1yv06hbfog)" height="48" id="RotatingSamples" style="stroke: #A80036; stroke-width: 1.5;" width="128" x="166.5" y="224"/><ellipse cx="181.5" cy="240" fill="#ADD1B2" rx="11" ry="11" style="stroke: #A80036; stroke-width: 1.0;"/><path d="M184.2656,235.875 Q184.4219,235.6563 184.6094,235.5469 Q184.7969,235.4375 185.0156,235.4375 Q185.3906,235.4375 185.625,235.6953 Q185.8594,235.9531 185.8594,236.5625 L185.8594,238.0156 Q185.8594,238.625 185.625,238.8906 Q185.3906,239.1563 185.0156,239.1563 Q184.6719,239.1563 184.4688,238.9531 Q184.2656,238.7656 184.1563,238.25 Q184.1094,237.8906 183.9219,237.7031 Q183.5938,237.3281 182.9844,237.1094 Q182.375,236.8906 181.75,236.8906 Q180.9844,236.8906 180.3516,237.2188 Q179.7188,237.5469 179.2266,238.2969 Q178.7344,239.0469 178.7344,240.0781 L178.7344,241.1719 Q178.7344,242.4063 179.625,243.2266 Q180.5156,244.0469 182.1094,244.0469 Q183.0469,244.0469 183.7031,243.7969 Q184.0938,243.6406 184.5156,243.2031 Q184.7813,242.9375 184.9297,242.8594 Q185.0781,242.7813 185.2813,242.7813 Q185.6094,242.7813 185.8672,243.0391 Q186.125,243.2969 186.125,243.6406 Q186.125,243.9844 185.7813,244.3906 Q185.2813,244.9688 184.4844,245.2969 Q183.4063,245.75 182.1094,245.75 Q180.5938,245.75 179.3906,245.125 Q178.4063,244.625 177.7188,243.5547 Q177.0313,242.4844 177.0313,241.2031 L177.0313,240.0469 Q177.0313,238.7188 177.6484,237.5703 Q178.2656,236.4219 179.3594,235.8047 Q180.4531,235.1875 181.6875,235.1875 Q182.4219,235.1875 183.0703,235.3516 Q183.7188,235.5156 184.2656,235.875 Z "/><text fill="#000000" font-family="sans-serif" font-size="12" lengthAdjust="spacingAndGlyphs" textLength="96" x="195.5" y="244.9102">RotatingSamples</text><line style="stroke: #A80036; stroke-width: 1.5;" x1="167.5" x2="293.5" y1="256" y2="256"/><line style="stroke: #A80036; stroke-width: 1.5;" x1="167.5" x2="293.5" y1="264" y2="264"/><!--class DisplaySamples--><rect fill="#FEFECE" filter="url(#fmq1yv06hbfog)" height="48" id="DisplaySamples" style="stroke: #A80036; stroke-width: 1.5;" width="123" x="169" y="116"/><ellipse cx="184" cy="132" fill="#ADD1B2" rx="11" ry="11" style="stroke: #A80036; stroke-width: 1.0;"/><path d="M186.7656,127.875 Q186.9219,127.6563 187.1094,127.5469 Q187.2969,127.4375 187.5156,127.4375 Q187.8906,127.4375 188.125,127.6953 Q188.3594,127.9531 188.3594,128.5625 L188.3594,130.0156 Q188.3594,130.625 188.125,130.8906 Q187.8906,131.1563 187.5156,131.1563 Q187.1719,131.1563 186.9688,130.9531 Q186.7656,130.7656 186.6563,130.25 Q186.6094,129.8906 186.4219,129.7031 Q186.0938,129.3281 185.4844,129.1094 Q184.875,128.8906 184.25,128.8906 Q183.4844,128.8906 182.8516,129.2188 Q182.2188,129.5469 181.7266,130.2969 Q181.2344,131.0469 181.2344,132.0781 L181.2344,133.1719 Q181.2344,134.4063 182.125,135.2266 Q183.0156,136.0469 184.6094,136.0469 Q185.5469,136.0469 186.2031,135.7969 Q186.5938,135.6406 187.0156,135.2031 Q187.2813,134.9375 187.4297,134.8594 Q187.5781,134.7813 187.7813,134.7813 Q188.1094,134.7813 188.3672,135.0391 Q188.625,135.2969 188.625,135.6406 Q188.625,135.9844 188.2813,136.3906 Q187.7813,136.9688 186.9844,137.2969 Q185.9063,137.75 184.6094,137.75 Q183.0938,137.75 181.8906,137.125 Q180.9063,136.625 180.2188,135.5547 Q179.5313,134.4844 179.5313,133.2031 L179.5313,132.0469 Q179.5313,130.7188 180.1484,129.5703 Q180.7656,128.4219 181.8594,127.8047 Q182.9531,127.1875 184.1875,127.1875 Q184.9219,127.1875 185.5703,127.3516 Q186.2188,127.5156 186.7656,127.875 Z "/><text fill="#000000" font-family="sans-serif" font-size="12" lengthAdjust="spacingAndGlyphs" textLength="91" x="198" y="136.9102">DisplaySamples</text><line style="stroke: #A80036; stroke-width: 1.5;" x1="170" x2="291" y1="148" y2="148"/><line style="stroke: #A80036; stroke-width: 1.5;" x1="170" x2="291" y1="156" y2="156"/><!--class GraphSamples--><rect fill="#FEFECE" filter="url(#fmq1yv06hbfog)" height="48" id="GraphSamples" style="stroke: #A80036; stroke-width: 1.5;" width="116" x="172.5" y="8"/><ellipse cx="187.5" cy="24" fill="#ADD1B2" rx="11" ry="11" style="stroke: #A80036; stroke-width: 1.0;"/><path d="M190.2656,19.875 Q190.4219,19.6563 190.6094,19.5469 Q190.7969,19.4375 191.0156,19.4375 Q191.3906,19.4375 191.625,19.6953 Q191.8594,19.9531 191.8594,20.5625 L191.8594,22.0156 Q191.8594,22.625 191.625,22.8906 Q191.3906,23.1563 191.0156,23.1563 Q190.6719,23.1563 190.4688,22.9531 Q190.2656,22.7656 190.1563,22.25 Q190.1094,21.8906 189.9219,21.7031 Q189.5938,21.3281 188.9844,21.1094 Q188.375,20.8906 187.75,20.8906 Q186.9844,20.8906 186.3516,21.2188 Q185.7188,21.5469 185.2266,22.2969 Q184.7344,23.0469 184.7344,24.0781 L184.7344,25.1719 Q184.7344,26.4063 185.625,27.2266 Q186.5156,28.0469 188.1094,28.0469 Q189.0469,28.0469 189.7031,27.7969 Q190.0938,27.6406 190.5156,27.2031 Q190.7813,26.9375 190.9297,26.8594 Q191.0781,26.7813 191.2813,26.7813 Q191.6094,26.7813 191.8672,27.0391 Q192.125,27.2969 192.125,27.6406 Q192.125,27.9844 191.7813,28.3906 Q191.2813,28.9688 190.4844,29.2969 Q189.4063,29.75 188.1094,29.75 Q186.5938,29.75 185.3906,29.125 Q184.4063,28.625 183.7188,27.5547 Q183.0313,26.4844 183.0313,25.2031 L183.0313,24.0469 Q183.0313,22.7188 183.6484,21.5703 Q184.2656,20.4219 185.3594,19.8047 Q186.4531,19.1875 187.6875,19.1875 Q188.4219,19.1875 189.0703,19.3516 Q189.7188,19.5156 190.2656,19.875 Z "/><text fill="#000000" font-family="sans-serif" font-size="12" lengthAdjust="spacingAndGlyphs" textLength="84" x="201.5" y="28.9102">GraphSamples</text><line style="stroke: #A80036; stroke-width: 1.5;" x1="173.5" x2="287.5" y1="40" y2="40"/><line style="stroke: #A80036; stroke-width: 1.5;" x1="173.5" x2="287.5" y1="48" y2="48"/><!--class PermanentSamples--><rect fill="#FEFECE" filter="url(#fmq1yv06hbfog)" height="48" id="PermanentSamples" style="stroke: #A80036; stroke-width: 1.5;" width="143" x="6" y="332"/><ellipse cx="21" cy="348" fill="#ADD1B2" rx="11" ry="11" style="stroke: #A80036; stroke-width: 1.0;"/><path d="M23.7656,343.875 Q23.9219,343.6563 24.1094,343.5469 Q24.2969,343.4375 24.5156,343.4375 Q24.8906,343.4375 25.125,343.6953 Q25.3594,343.9531 25.3594,344.5625 L25.3594,346.0156 Q25.3594,346.625 25.125,346.8906 Q24.8906,347.1563 24.5156,347.1563 Q24.1719,347.1563 23.9688,346.9531 Q23.7656,346.7656 23.6563,346.25 Q23.6094,345.8906 23.4219,345.7031 Q23.0938,345.3281 22.4844,345.1094 Q21.875,344.8906 21.25,344.8906 Q20.4844,344.8906 19.8516,345.2188 Q19.2188,345.5469 18.7266,346.2969 Q18.2344,347.0469 18.2344,348.0781 L18.2344,349.1719 Q18.2344,350.4063 19.125,351.2266 Q20.0156,352.0469 21.6094,352.0469 Q22.5469,352.0469 23.2031,351.7969 Q23.5938,351.6406 24.0156,351.2031 Q24.2813,350.9375 24.4297,350.8594 Q24.5781,350.7813 24.7813,350.7813 Q25.1094,350.7813 25.3672,351.0391 Q25.625,351.2969 25.625,351.6406 Q25.625,351.9844 25.2813,352.3906 Q24.7813,352.9688 23.9844,353.2969 Q22.9063,353.75 21.6094,353.75 Q20.0938,353.75 18.8906,353.125 Q17.9063,352.625 17.2188,351.5547 Q16.5313,350.4844 16.5313,349.2031 L16.5313,348.0469 Q16.5313,346.7188 17.1484,345.5703 Q17.7656,344.4219 18.8594,343.8047 Q19.9531,343.1875 21.1875,343.1875 Q21.9219,343.1875 22.5703,343.3516 Q23.2188,343.5156 23.7656,343.875 Z "/><text fill="#000000" font-family="sans-serif" font-size="12" lengthAdjust="spacingAndGlyphs" textLength="111" x="35" y="352.9102">PermanentSamples</text><line style="stroke: #A80036; stroke-width: 1.5;" x1="7" x2="148" y1="364" y2="364"/><line style="stroke: #A80036; stroke-width: 1.5;" x1="7" x2="148" y1="372" y2="372"/><!--link RobustFlashIndexes to SPIFlash--><path d="M291.074,388.4853 C271.556,404.905 248.094,424.643 230.222,439.6784 " fill="none" id="RobustFlashIndexes-SPIFlash" style="stroke: #A80036; stroke-width: 1.0;"/><polygon fill="#FFFFFF" points="301.16,380,293.9936,380.8018,291.9774,387.7253,299.1438,386.9235,301.16,380" style="stroke: #A80036; stroke-width: 1.0;"/><!--link PermanentSamples to SPIFlash--><path d="M114.629,388.4853 C133.992,404.905 157.268,424.643 174.998,439.6784 " fill="none" id="PermanentSamples-SPIFlash" style="stroke: #A80036; stroke-width: 1.0;"/><polygon fill="#FFFFFF" points="104.6231,380,106.612,386.9314,113.7752,387.7614,111.7863,380.83,104.6231,380" style="stroke: #A80036; stroke-width: 1.0;"/><!--link BaroSamples to RotatingSamples--><path d="M131.588,248 C143.179,248 154.77,248 166.362,248 " fill="none" id="BaroSamples-RotatingSamples" style="stroke: #A80036; stroke-width: 1.0;"/><text fill="#000000" font-family="sans-serif" font-size="13" lengthAdjust="spacingAndGlyphs" textLength="20" x="138.5117" y="244.4455">0..*</text><!--link RotatingSamples to RobustFlashIndexes--><path d="M260.663,281.626 C275.628,297.812 293.358,316.989 306.939,331.678 " fill="none" id="RotatingSamples-RobustFlashIndexes" style="stroke: #A80036; stroke-width: 1.0;"/><polygon fill="#FFFFFF" points="251.765,272,252.9012,279.121,259.9115,280.8111,258.7753,273.69,251.765,272" style="stroke: #A80036; stroke-width: 1.0;"/><!--link RotatingSamples to SPIFlash--><path d="M227.45,272.309 C222.275,311.866 211.791,391.9938 206.203,434.702 " fill="none" id="RotatingSamples-SPIFlash" style="stroke: #A80036; stroke-width: 1.0; stroke-dasharray: 7.0,7.0;"/><polygon fill="#A80036" points="205.546,439.7196,210.68,431.3147,206.1948,434.7619,202.7476,430.2767,205.546,439.7196" style="stroke: #A80036; stroke-width: 1.0;"/><!--link BaroSamples to PermanentSamples--><path d="M77.5,272 C77.5,289.658 77.5,313.941 77.5,331.678 " fill="none" id="BaroSamples-PermanentSamples" style="stroke: #A80036; stroke-width: 1.0;"/><text fill="#000000" font-family="sans-serif" font-size="13" lengthAdjust="spacingAndGlyphs" textLength="20" x="55.0625" y="293.338">0..*</text><!--link DisplaySamples to RotatingSamples--><path d="M230.5,177.338 C230.5,192.681 230.5,210.098 230.5,223.678 " fill="none" id="DisplaySamples-RotatingSamples" style="stroke: #A80036; stroke-width: 1.0;"/><polygon fill="#FFFFFF" points="230.5,164,226.5,170,230.5,176,234.5,170,230.5,164" style="stroke: #A80036; stroke-width: 1.0;"/><!--link GraphSamples to DisplaySamples--><path d="M230.5,56 C230.5,67.588 230.5,82.029 230.5,95.601 " fill="none" id="GraphSamples-DisplaySamples" style="stroke: #A80036; stroke-width: 1.0;"/><polygon fill="none" points="237.5,95.678,230.5,115.678,223.5,95.678,237.5,95.678" style="stroke: #A80036; stroke-width: 1.0;"/><!--
@startuml

skinparam componentStyle uml2

class SPIFlash

class RobustFlashIndexes

class BaroSamples

class RotatingSamples

class DisplaySamples

class GraphSamples

class PermanentSamples

RobustFlashIndexes o- - SPIFlash
PermanentSamples o- - SPIFlash

RotatingSamples -left- "0..*" BaroSamples
RotatingSamples o- - RobustFlashIndexes
RotatingSamples ..> SPIFlash
PermanentSamples -up- "0..*" BaroSamples

DisplaySamples o- - RotatingSamples

GraphSamples - -|> DisplaySamples

@enduml

PlantUML version 1.2019.06(Fri May 24 10:10:25 PDT 2019)
(GPL source distribution)
Java Runtime: Java(TM) SE Runtime Environment
JVM: Java HotSpot(TM) 64-Bit Server VM
Java Version: 1.8.0_211-b12
Operating System: Windows 10
OS Version: 10.0
Default Encoding: Cp1252
Language: en
Country: US
--></g></svg>