<svg xmlns="http://www.w3.org/2000/svg" viewBox="0 0 374.423 255.368"><defs><style>.cls-1{fill:#fff;}.cls-1,.cls-3,.cls-4{stroke:#231f20;stroke-miterlimit:10;}.cls-1,.cls-4{stroke-width:2px;}.cls-2{fill:#231f20;}.cls-3,.cls-4{fill:none;}.cls-3{stroke-width:0.25px;}</style></defs><title>Brochure Icons</title><g id="Layer_1" data-name="Layer 1"><rect class="cls-1" x="214.141" y="221.565" width="28.346" height="28.346" rx="5.587"/><path class="cls-2" d="M256.981,267.374v9.5a1,1,0,0,0,2,0v-9.5a1,1,0,0,0-2,0Z" transform="translate(-19.788 -36.386)"/><path class="cls-2" d="M257.981,271.124H237.259a1,1,0,0,0,0,2h20.722a1,1,0,0,0,0-2Z" transform="translate(-19.788 -36.386)"/><rect class="cls-1" x="270.834" y="221.565" width="28.346" height="28.346" rx="5.587"/><path class="cls-2" d="M313.674,267.374v9.5a1,1,0,0,0,2,0v-9.5a1,1,0,0,0-2,0Z" transform="translate(-19.788 -36.386)"/><path class="cls-2" d="M314.674,271.124H293.951a1,1,0,0,0,0,2h20.723a1,1,0,0,0,0-2Z" transform="translate(-19.788 -36.386)"/><path class="cls-2" d="M236.551,272.832l3.848,3.847a1,1,0,0,0,1.414-1.414l-3.847-3.848a1,1,0,0,0-1.415,1.415Z" transform="translate(-19.788 -36.386)"/><path class="cls-2" d="M237.966,272.832l3.847-3.848a1,1,0,0,0-1.414-1.414l-3.848,3.847a1,1,0,0,0,1.415,1.415Z" transform="translate(-19.788 -36.386)"/><path class="cls-2" d="M303.593,271.417l-3.847,3.848a1,1,0,0,0,1.414,1.414l3.848-3.847a1,1,0,0,0-1.415-1.415Z" transform="translate(-19.788 -36.386)"/><path class="cls-2" d="M305.008,271.417l-3.848-3.847a1,1,0,0,0-1.414,1.414l3.847,3.848a1,1,0,0,0,1.415-1.415Z" transform="translate(-19.788 -36.386)"/><rect class="cls-3" x="0.125" y="0.125" width="374.173" height="255.118" rx="17.008"/></g><g id="Layer_2" data-name="Layer 2"><rect class="cls-1" x="75.236" y="221.609" width="28.346" height="28.346" rx="5.587"/><rect class="cls-1" x="131.936" y="221.609" width="28.346" height="28.346" rx="5.587"/><line class="cls-4" x1="75.716" y1="224.94" x2="75.716" y2="224.94"/><path class="cls-2" d="M99.81,282.9h19.262a1,1,0,0,0,0-2H99.81a1,1,0,0,0,0,2Z" transform="translate(-19.788 -36.386)"/><path class="cls-2" d="M100.318,269.517c2.582-1.422,5.8-2.578,7.811.313,1.121,1.613,1.546,3.6,2.455,5.324,2.166,4.107,6.035,3.469,9.344.954,1.012-.769.016-2.507-1.009-1.727-1.3.988-3.224,2.478-4.946,1.668a4.5,4.5,0,0,1-1.884-2.363c-.833-1.765-1.34-3.707-2.531-5.285-2.677-3.547-6.863-2.476-10.25-.611-1.127.621-.119,2.349,1.01,1.727Z" transform="translate(-19.788 -36.386)"/><path class="cls-2" d="M100.813,281.8V262.537a1,1,0,0,0-2,0V281.8a1,1,0,0,0,2,0Z" transform="translate(-19.788 -36.386)"/><path class="cls-2" d="M156.169,264.988h19.444a1,1,0,0,0,0-2H156.169a1,1,0,0,0,0,2Z" transform="translate(-19.788 -36.386)"/><path class="cls-2" d="M156.169,268.933h19.444a1,1,0,0,0,0-2H156.169a1,1,0,0,0,0,2Z" transform="translate(-19.788 -36.386)"/><path class="cls-2" d="M156.169,273.044h19.444a1,1,0,0,0,0-2H156.169a1,1,0,0,0,0,2Z" transform="translate(-19.788 -36.386)"/><path class="cls-2" d="M156.169,277.155h19.444a1,1,0,0,0,0-2H156.169a1,1,0,0,0,0,2Z" transform="translate(-19.788 -36.386)"/><path class="cls-2" d="M156.169,281.369h19.444a1,1,0,0,0,0-2H156.169a1,1,0,0,0,0,2Z" transform="translate(-19.788 -36.386)"/></g></svg>